<?xml version="1.0" encoding="utf-8"?>
<!-- Generator: Adobe Illustrator 24.0.0, SVG Export Plug-In . SVG Version: 6.00 Build 0)  -->
<svg version="1.1" id="Layer_1" xmlns="http://www.w3.org/2000/svg" xmlns:xlink="http://www.w3.org/1999/xlink" x="0px" y="0px"
	 viewBox="0 0 375.48 110.01" style="enable-background:new 0 0 375.48 110.01;" xml:space="preserve">
<style type="text/css">
	.st0{fill:#333333;}
</style>
<g>
	<path class="st0" d="M93.18,48.49c-1.45-0.91-3.11-1.37-4.96-1.37c-0.86,0-1.67,0.1-2.44,0.3c-0.77,0.2-1.49,0.49-2.15,0.86
		c-0.66,0.37-1.26,0.8-1.8,1.29c-0.54,0.49-1,1.04-1.37,1.63l-0.02-3.61h-7.09v32.82h7.07V68.88c0.35,0.6,0.77,1.15,1.25,1.66
		c0.48,0.51,1.02,0.96,1.62,1.34c0.6,0.39,1.26,0.69,1.97,0.91c0.71,0.22,1.47,0.33,2.27,0.33c1.97,0,3.74-0.47,5.3-1.4
		c1.57-0.94,2.8-2.37,3.69-4.32c0.9-1.94,1.34-4.43,1.34-7.47c0-2.92-0.42-5.33-1.25-7.22C95.77,50.81,94.63,49.4,93.18,48.49z
		 M89.68,66.03c-1.04,1.27-2.33,1.91-3.86,1.91c-1.23,0-2.24-0.37-3.04-1.11c-0.8-0.74-1.4-1.72-1.79-2.93
		c-0.4-1.21-0.59-2.52-0.59-3.92c0-2.19,0.45-4.03,1.34-5.51c0.9-1.48,2.25-2.21,4.08-2.21c1.63,0,2.94,0.68,3.93,2.05
		s1.49,3.25,1.49,5.68C91.25,62.73,90.73,64.75,89.68,66.03z"/>
	<path class="st0" d="M108,66.98c-0.4-0.57-0.59-1.32-0.59-2.24V36.67h-6.92v28.95c0,0.9,0.07,1.8,0.22,2.67
		c0.14,0.88,0.48,1.68,0.99,2.4c0.52,0.72,1.31,1.29,2.4,1.73c1.08,0.44,2.54,0.65,4.38,0.65c0.48,0,0.98-0.06,1.48-0.18
		c0.5-0.12,0.99-0.26,1.48-0.42v-4.36l-1.19-0.07C109.15,67.91,108.4,67.55,108,66.98z"/>
	<path class="st0" d="M129.56,63.89c0,1.29-0.41,2.3-1.22,3.01c-0.82,0.72-1.92,1.08-3.3,1.08c-1.47,0-2.58-0.37-3.34-1.11
		c-0.76-0.74-1.14-1.69-1.14-2.86V47.61h-7.07v17.3c0,1.34,0.28,2.52,0.84,3.53c0.56,1.02,1.29,1.87,2.21,2.57
		c0.92,0.69,1.94,1.22,3.06,1.57c1.12,0.36,2.26,0.53,3.42,0.53c0.98,0,1.99-0.15,3.01-0.45c1.02-0.3,1.94-0.84,2.73-1.62
		c0.8-0.78,1.34-1.91,1.63-3.38l0.82,4.96h5.32V47.61h-6.99V63.89z"/>
	<path class="st0" d="M159.71,61.28c-0.48-0.69-1.17-1.33-2.05-1.93c-0.88-0.59-2.02-1.05-3.42-1.39l-4.07-0.92
		c-1.35-0.27-2.36-0.6-3-0.98c-0.65-0.38-0.97-0.9-0.97-1.56c0-0.89,0.4-1.55,1.19-1.98c0.79-0.44,1.79-0.65,3-0.65
		c1.19,0,2.18,0.26,2.96,0.79c0.78,0.52,1.26,1.27,1.44,2.24h5.91c-0.03-2.47-0.97-4.38-2.82-5.74c-1.85-1.36-4.31-2.03-7.39-2.03
		c-2.28,0-4.2,0.35-5.77,1.04c-1.57,0.69-2.76,1.64-3.56,2.83c-0.8,1.19-1.19,2.54-1.17,4.04c0.02,2.07,0.7,3.66,2.04,4.78
		c1.35,1.12,3.13,1.92,5.34,2.38l4.4,0.92c1.13,0.21,1.94,0.52,2.43,0.92c0.49,0.4,0.74,0.94,0.74,1.62c0,0.89-0.42,1.54-1.25,1.97
		c-0.83,0.43-1.92,0.64-3.28,0.64c-0.65,0-1.32-0.11-2.03-0.33c-0.71-0.22-1.34-0.58-1.9-1.1c-0.56-0.52-0.95-1.22-1.17-2.11h-6.1
		c0.29,1.97,1,3.57,2.12,4.8c1.12,1.23,2.49,2.14,4.09,2.71c1.6,0.57,3.28,0.86,5.02,0.86c2.1,0,3.94-0.31,5.52-0.92
		c1.58-0.61,2.82-1.5,3.7-2.67c0.89-1.17,1.33-2.59,1.33-4.25c0-0.56-0.09-1.2-0.28-1.9C160.53,62.67,160.19,61.98,159.71,61.28z"/>
	<rect x="190.08" y="37.66" class="st0" width="7.21" height="6.36"/>
	<path class="st0" d="M190.18,72.39c0,0.81-0.19,1.42-0.58,1.84c-0.39,0.42-1.08,0.69-2.08,0.82l-1.94,0.19l0.02,4.72
		c0.82,0.47,1.89,0.7,3.19,0.7c2.97,0,5.11-0.69,6.44-2.06c1.32-1.37,1.98-3.42,1.98-6.15V47.61h-7.04V72.39z"/>
	<path class="st0" d="M218.66,48.73c-1.73-1.07-3.86-1.61-6.41-1.61c-2.57,0-4.75,0.58-6.56,1.75c-1.81,1.17-3.19,2.76-4.15,4.77
		c-0.96,2.01-1.44,4.26-1.44,6.77c0,2.58,0.52,4.82,1.57,6.73c1.05,1.91,2.51,3.38,4.39,4.42c1.88,1.04,4.06,1.56,6.55,1.56
		c1.74,0,3.42-0.33,5.03-0.99c1.61-0.66,2.99-1.62,4.11-2.88c1.13-1.26,1.84-2.77,2.13-4.55h-6.37c-0.37,1.18-1.01,2.03-1.91,2.54
		c-0.9,0.52-1.96,0.77-3.17,0.77c-1.13,0-2.09-0.25-2.89-0.76c-0.8-0.51-1.41-1.23-1.83-2.18c-0.42-0.94-0.63-2.05-0.63-3.33h16.82
		v-1.91c0-2.5-0.44-4.71-1.33-6.62C221.7,51.3,220.39,49.81,218.66,48.73z M207.09,57.53c-0.02-0.92,0.18-1.8,0.59-2.64
		c0.41-0.84,1-1.52,1.77-2.04c0.77-0.52,1.69-0.79,2.77-0.79c1.13,0,2.07,0.24,2.82,0.73c0.75,0.48,1.31,1.14,1.69,1.98
		c0.38,0.84,0.57,1.76,0.57,2.76H207.09z"/>
	<path class="st0" d="M243.11,51c-0.31-0.53-0.7-1.03-1.19-1.5c-0.48-0.47-1.05-0.88-1.69-1.23c-0.64-0.36-1.36-0.63-2.14-0.84
		c-0.78-0.2-1.63-0.3-2.53-0.3c-2.15,0-3.96,0.53-5.44,1.58c-1.49,1.06-2.61,2.55-3.36,4.47c-0.76,1.92-1.14,4.19-1.14,6.8
		c0,4.13,0.94,7.35,2.81,9.67c1.87,2.31,4.48,3.47,7.84,3.47c1.23,0,2.3-0.16,3.21-0.48c0.91-0.32,1.68-0.75,2.31-1.29
		c0.63-0.54,1.14-1.14,1.54-1.8c0.39-0.66,0.71-1.34,0.96-2.03l0.8,5.13h5.13V36.67h-7.09V51z M241.79,66.17
		c-0.88,1.24-2.21,1.86-3.98,1.86c-1.63,0-2.92-0.66-3.87-1.99c-0.95-1.32-1.43-3.38-1.43-6.17c0-2.74,0.51-4.7,1.53-5.87
		c1.02-1.17,2.29-1.75,3.82-1.75c1.18,0,2.15,0.28,2.92,0.83c0.77,0.56,1.34,1.4,1.73,2.53c0.39,1.13,0.59,2.55,0.6,4.26
		C243.11,62.83,242.67,64.93,241.79,66.17z"/>
	<path class="st0" d="M271.57,48.73c-1.73-1.07-3.86-1.61-6.41-1.61c-2.57,0-4.75,0.58-6.56,1.75c-1.81,1.17-3.19,2.76-4.15,4.77
		c-0.96,2.01-1.44,4.26-1.44,6.77c0,2.58,0.52,4.82,1.57,6.73c1.05,1.91,2.51,3.38,4.39,4.42c1.88,1.04,4.06,1.56,6.55,1.56
		c1.74,0,3.42-0.33,5.03-0.99c1.61-0.66,2.99-1.62,4.11-2.88c1.13-1.26,1.84-2.77,2.13-4.55h-6.37c-0.37,1.18-1.01,2.03-1.91,2.54
		c-0.9,0.52-1.96,0.77-3.17,0.77c-1.13,0-2.09-0.25-2.89-0.76c-0.8-0.51-1.41-1.23-1.83-2.18c-0.42-0.94-0.63-2.05-0.63-3.33h16.82
		v-1.91c0-2.5-0.44-4.71-1.33-6.62C274.6,51.3,273.29,49.81,271.57,48.73z M260,57.53c-0.02-0.92,0.18-1.8,0.59-2.64
		c0.41-0.84,1-1.52,1.77-2.04c0.77-0.52,1.69-0.79,2.77-0.79c1.13,0,2.07,0.24,2.82,0.73c0.75,0.48,1.31,1.14,1.69,1.98
		c0.38,0.84,0.57,1.76,0.57,2.76H260z"/>
	<path class="st0" d="M298.2,48.28c-1.33-0.6-2.76-0.89-4.3-0.89c-1.31,0-2.44,0.18-3.39,0.56c-0.95,0.37-1.74,0.84-2.36,1.42
		c-0.62,0.57-1.13,1.17-1.51,1.78v-3.53h-6.95v25.02h7.07V56.61c0-0.81,0.22-1.49,0.68-2.03c0.45-0.55,1.04-0.96,1.75-1.23
		c0.72-0.28,1.46-0.41,2.24-0.41c1.16,0,2.14,0.34,2.95,1.02c0.81,0.68,1.21,1.69,1.21,3.05v15.63h7.07V56.13
		c0-2.07-0.41-3.74-1.23-5.02C300.61,49.82,299.53,48.88,298.2,48.28z"/>
	<polygon class="st0" points="27.74,27.74 0,27.74 0,36.67 27.74,36.67 36.67,36.67 36.67,27.74 36.67,0 27.74,0 	"/>
	<polygon class="st0" points="375.48,73.34 347.74,73.34 338.82,73.34 338.82,82.26 338.82,110.01 347.74,110.01 347.74,82.26 
		375.48,82.26 	"/>
</g>
</svg>
